<svg width="48" height="48" viewBox="0 0 48 48" fill="none" xmlns="http://www.w3.org/2000/svg">
<path d="M32.8476 26.4122L38.8091 19.8779C36.826 14.2983 31.7149 12 27.3631 12C23.0112 12 21.378 13.5027 19.1959 17.1298C17.5468 16.5574 16.5421 16.3848 14.5459 16.458C11.9761 16.8042 10.9963 17.3594 9.71717 18.7176H19.1959C19.7962 19.433 19.7294 19.8342 19.1959 20.5496H2.62304V22.3817H7.15375C7.35434 23.2279 7.21794 23.6518 6.61721 24.3359H16.5132C16.8691 24.9751 16.9275 25.5794 16.5132 26.229H0V28.1221H5.78261C6.37797 28.2533 6.59258 28.544 6.61721 29.7099H18.6594C19.3055 30.5578 19.3653 31.0047 18.6594 31.7252H2.20574V33.5573H9.71717C10.8398 35.122 11.7163 35.5888 13.5325 36H41.611C44.0551 36 47.8109 33.313 47.9897 29.4046C48.1686 25.4962 46.0224 22.0153 41.0744 20.7328L32.8476 29.7099L26.1708 22.8702H29.2707L32.8476 26.4122Z" fill="url(#paint0_linear_771_4)"/>
<defs>
<linearGradient id="paint0_linear_771_4" x1="24" y1="12" x2="16.6976" y2="35.903" gradientUnits="userSpaceOnUse">
<stop stop-color="#F08E4D"/>
<stop offset="1" stop-color="#FABE50"/>
</linearGradient>
</defs>
</svg>
